<?xml version="1.0" ?><!DOCTYPE svg  PUBLIC '-//W3C//DTD SVG 1.1//EN'  'http://www.w3.org/Graphics/SVG/1.1/DTD/svg11.dtd'><svg height="4167px" style="shape-rendering:geometricPrecision; text-rendering:geometricPrecision; image-rendering:optimizeQuality; fill-rule:evenodd; clip-rule:evenodd" version="1.1" viewBox="0 0 4167 4167" width="4167px" xml:space="preserve" xmlns="http://www.w3.org/2000/svg" xmlns:xlink="http://www.w3.org/1999/xlink"><defs><style type="text/css">
   <![CDATA[
    .fil0 {fill:#333333;fill-rule:nonzero}
   ]]>
  </style></defs><g id="РЎР_x00bb_РѕР_x2116__x0020_1"><g id="_605263984"><path class="fil0" d="M1381 3436c16,-44 15,-98 -12,-163 -24,-57 -62,-111 -103,-163 9,11 18,21 25,30 -68,-150 -235,-358 -396,-246 23,-140 18,-277 2,-420 -109,102 -244,220 -316,354 -124,228 151,137 249,56 -57,13 -116,19 -175,17 52,-72 119,-136 178,-202 12,72 25,144 38,215 -11,10 -21,20 -31,33 -159,192 -17,453 166,565 70,43 155,55 227,40 -89,105 20,287 152,289 99,2 233,-89 265,-186 42,-128 -148,-183 -269,-219zm-351 -46l0 0c-108,-90 -215,-269 -105,-401 82,-97 184,-37 266,40 48,99 134,222 126,321 -14,176 -199,113 -287,40zm496 252l0 0c-92,173 -357,67 -278,-94 51,-14 95,-43 120,-85 17,16 34,31 52,46 16,13 107,63 115,83 16,39 12,11 -9,50z"/><path class="fil0" d="M657 2232c181,-50 388,-307 295,-481 -23,-42 -53,-71 -87,-89 -4,-52 -8,-104 -11,-156 94,29 184,77 261,139 -48,16 -96,32 -144,48 56,8 238,41 256,-36 15,-62 -126,-161 -162,-184 -57,-36 -133,-72 -204,-74 -153,-4 -84,151 -27,250 -108,-35 -244,21 -315,117 -53,70 -168,387 25,365 -70,-28 -70,-109 -34,-189 79,72 186,107 292,99 -88,115 -240,199 -336,117 38,71 101,91 169,79 -5,45 -7,90 -15,135 -14,72 -7,60 -59,58 -38,-1 -213,-36 -236,-58 -75,-73 46,-183 89,-237 -118,50 -306,206 -140,330 59,43 189,60 263,71 211,30 158,-164 120,-304zm-147 -290l0 0c58,-127 208,-253 315,-166 74,59 49,168 -18,259 -105,-122 -143,-134 -297,-93z"/><path class="fil0" d="M974 3250l125 -148c0,0 -262,-93 -125,148z"/><path class="fil0" d="M3955 1416c21,-174 -53,-395 -237,-448 -149,-44 -347,55 -329,232 34,-136 190,-201 312,-138 121,63 158,238 137,364 -16,95 -64,167 -130,220 -91,-141 -221,-241 -390,-242 20,-167 24,-337 27,-505 12,-16 21,-32 27,-50 76,-241 -371,-258 -634,-244 -20,-38 -50,-73 -87,-98 -76,-52 -177,-62 -90,-160 -136,18 -143,137 -46,214 27,22 55,40 82,57 -6,1 -12,2 -17,2 7,0 14,1 21,1 70,45 129,87 141,196 30,-63 30,-131 6,-191 80,6 161,16 240,33 59,12 300,56 300,144 0,88 -241,132 -300,144 -134,28 -272,38 -408,38 -137,0 -275,-10 -409,-38 -59,-12 -299,-56 -299,-144 0,-88 240,-132 299,-144 13,-3 26,-5 38,-8 11,10 20,21 25,34 6,12 4,157 51,108 22,-34 48,-89 37,-143 -1,-5 -2,-10 -4,-15 87,-10 175,-14 262,-15 -72,-10 -175,-23 -282,-25 -46,-64 -136,-82 -172,-151 -24,-46 1,-68 25,-118 -145,79 -128,174 -10,273 -135,13 -259,50 -324,135 -43,55 -42,103 -14,145 -37,272 -50,546 7,807 -87,43 -119,193 -131,274 -22,137 -5,285 61,409 139,263 452,336 727,338 266,2 570,-47 757,-252 94,-102 145,-235 152,-373 3,-80 -5,-196 -51,-279 133,18 275,2 391,-54 89,216 99,491 38,674 -161,488 -683,641 -1147,652 -464,11 -1063,-60 -1317,-507 -125,-221 -135,-491 -64,-731 64,-216 213,-470 456,-511 -393,36 -580,555 -572,889 11,428 308,741 700,873 688,233 1882,151 2042,-733 32,-182 0,-430 -98,-627 106,-64 184,-165 201,-312zm-714 892l0 0c-154,228 -450,278 -705,283 -247,6 -540,-23 -701,-235 -76,-99 -109,-225 -113,-348 -3,-87 0,-262 89,-318 30,134 78,265 151,391 -28,-184 -58,-364 -70,-550 -13,-205 -18,-412 -54,-614 143,120 519,172 607,178 175,12 352,4 523,-31 104,-21 292,-61 372,-160 -36,168 -64,339 -102,507 -19,3 -39,8 -58,13 19,-4 38,-7 57,-9 -41,182 -95,361 -183,527 -92,171 -315,203 -495,234 -193,33 -427,57 -587,-82 128,159 348,184 538,177 168,-7 418,-29 553,-142 91,-77 146,-210 183,-342 22,6 45,11 69,14 69,149 -2,400 -74,507zm19 -578l0 0c16,13 28,27 39,43 -17,1 -33,1 -50,1 4,-15 8,-29 11,-44zm46 43l0 0c-13,-18 -28,-33 -45,-45 14,-57 24,-112 33,-161 10,-51 17,-103 23,-155 164,11 283,114 361,256 -104,70 -243,99 -372,105z"/></g></g></svg>